<svg width="21" height="20" viewBox="0 0 21 20" fill="none" xmlns="http://www.w3.org/2000/svg">
<path fill-rule="evenodd" clip-rule="evenodd" d="M0.483872 2.09551C0.483872 1.66808 0.660197 1.25816 0.974059 0.955921C1.28792 0.653684 1.71361 0.483889 2.15748 0.483889H18.8407C19.0607 0.483543 19.2785 0.52498 19.4819 0.605827C19.6852 0.686674 19.8699 0.805344 20.0256 0.955043C20.1812 1.10474 20.3046 1.28253 20.3888 1.47823C20.473 1.67392 20.5162 1.88369 20.5161 2.09551V18.1608C20.5164 18.3727 20.4732 18.5825 20.3892 18.7783C20.3051 18.9741 20.1818 19.152 20.0263 19.3019C19.8707 19.4517 19.686 19.5706 19.4828 19.6516C19.2795 19.7327 19.0616 19.7743 18.8416 19.7742H2.15748C1.93762 19.7742 1.71992 19.7325 1.5168 19.6514C1.31369 19.5704 1.12916 19.4516 0.973737 19.3019C0.818317 19.1521 0.695059 18.9744 0.611006 18.7787C0.526953 18.5831 0.483752 18.3734 0.483872 18.1617V2.09551ZM8.413 7.83876H11.1256V9.1505C11.5171 8.39643 12.5187 7.71776 14.0239 7.71776C16.9094 7.71776 17.5932 9.21977 17.5932 11.9757V17.0806H14.6731V12.6035C14.6731 11.0339 14.2815 10.1483 13.2872 10.1483C11.9077 10.1483 11.3341 11.1032 11.3341 12.6035V17.0806H8.413V12.4597V7.83876ZM3.40494 16.9605H6.32601V7.71776H3.40494V16.9605ZM6.74395 4.70321C6.74946 4.94405 6.70495 5.18353 6.61305 5.40758C6.52115 5.63164 6.38369 5.83576 6.20876 6.00796C6.03382 6.18017 5.82493 6.317 5.59433 6.41041C5.36374 6.50382 5.11609 6.55194 4.86593 6.55194C4.61576 6.55194 4.36812 6.50382 4.13752 6.41041C3.90693 6.317 3.69804 6.18017 3.5231 6.00796C3.34816 5.83576 3.21071 5.63164 3.11881 5.40758C3.0269 5.18353 2.9824 4.94405 2.9879 4.70321C2.99871 4.23047 3.20132 3.7806 3.55234 3.44994C3.90337 3.11928 4.37489 2.93413 4.86593 2.93413C5.35697 2.93413 5.82849 3.11928 6.17951 3.44994C6.53053 3.7806 6.73314 4.23047 6.74395 4.70321Z" fill="white"/>
</svg>
