<svg width="19" height="15" viewBox="0 0 19 15" fill="none" xmlns="http://www.w3.org/2000/svg">
<path d="M2.92792 3.66323C2.93848 3.55801 2.92407 3.45178 2.88584 3.35319C2.84761 3.25459 2.78665 3.16641 2.70792 3.09581L1.08542 1.14056V0.847229H6.12525L10.0211 9.39056L13.4457 0.847229H18.25V1.13965L16.8613 2.46973C16.8031 2.515 16.7582 2.57501 16.7311 2.64352C16.704 2.71203 16.6958 2.78654 16.7072 2.85931V12.6365C16.6956 12.7093 16.7037 12.7838 16.7308 12.8524C16.7579 12.9209 16.803 12.9809 16.8613 13.0261L18.217 14.3561V14.6486H11.4007V14.3561L12.8022 12.9931C12.9416 12.8556 12.9416 12.8143 12.9416 12.6044V4.70089L9.0375 14.6165H8.51042L3.96558 4.70089V11.3458C3.928 11.6254 4.02058 11.9068 4.21767 12.1094L6.04367 14.325V14.6174H0.866333V14.325L2.69233 12.1094C2.7884 12.0093 2.85973 11.8881 2.90063 11.7555C2.94153 11.6229 2.95088 11.4826 2.92792 11.3458V3.66323Z" fill="white"/>
</svg>
